<?xml version="1.0" standalone="no"?><svg xmlns="http://www.w3.org/2000/svg" viewBox="0 0 1440 320"><path fill="#0099ff" fill-opacity="1" d="M0,320L30,314.7C60,309,120,299,180,272C240,245,300,203,360,208C420,213,480,267,540,277.3C600,288,660,256,720,229.3C780,203,840,181,900,181.3C960,181,1020,203,1080,229.3C1140,256,1200,288,1260,261.3C1320,235,1380,149,1410,106.7L1440,64L1440,0L1410,0C1380,0,1320,0,1260,0C1200,0,1140,0,1080,0C1020,0,960,0,900,0C840,0,780,0,720,0C660,0,600,0,540,0C480,0,420,0,360,0C300,0,240,0,180,0C120,0,60,0,30,0L0,0Z"></path></svg>